<svg xmlns="http://www.w3.org/2000/svg" viewBox="0 0 24 24" fill="currentColor">
  <path fill-rule="evenodd" d="M15.75 1.5a6.75 6.75 0 00-6.651 7.906c.067.39-.032.717-.221.906l-6.5 6.499a3 3 0 00-.878 2.121v2.818c0 .414.336.75.75.75H6a.75.75 0 00.75-.75v-1.5h1.5A.75.75 0 009 19.5V18h1.5a.75.75 0 00.75-.75V15h1.5a.75.75 0 00.75-.75v-1.5a.75.75 0 01.75-.75h1.19c.839 0 1.41-.646 1.41-1.387v-.769c0-.236.096-.375.257-.375.258 0 .543.291.543.622V13.5a.75.75 0 00.75.75h1.5a.75.75 0 00.75-.75v-1.5a.75.75 0 01.75-.75h1.19c.839 0 1.41-.646 1.41-1.387v-.485c0-.54-.208-1.06-.594-1.446l-.394-.394a6.75 6.75 0 00-4.752-1.988h-1.578A6.75 6.75 0 0015.75 1.5zm0 3a.75.75 0 000 1.5A2.25 2.25 0 0118 8.25a.75.75 0 001.5 0 3.75 3.75 0 00-3.75-3.75z" clip-rule="evenodd" />
</svg>